<svg width="45" height="24" viewBox="0 0 45 24" fill="none" xmlns="http://www.w3.org/2000/svg">
<path d="M5.13148 22.9303C3.91245 22.6083 2.99026 21.6453 2.72701 20.4194C2.60596 19.8556 2.60512 19.5671 2.72295 19.0211C2.8527 18.4198 3.11429 17.9314 3.56568 17.4477C4.24512 16.7194 5.34497 16.3158 6.364 16.4205L6.78274 16.4636L6.10919 15.1834C5.73873 14.4793 5.24754 13.5522 5.01765 13.1231C4.78776 12.694 4.61912 12.3239 4.6429 12.3005C4.66669 12.2772 5.87848 12.2581 7.33578 12.2581H9.98541V12.8387V13.4194H8.23906C7.27857 13.4194 6.50256 13.4428 6.51461 13.4715C6.63393 13.7555 9.68026 19.418 9.70217 19.3964C9.71829 19.3806 9.64819 19.2124 9.5464 19.0225C9.36459 18.6835 9.36138 18.6586 9.36466 17.6129C9.36785 16.594 9.37691 16.5221 9.57616 15.935C10.0335 14.5874 10.9216 13.5659 12.2518 12.8579C12.4686 12.7425 12.6041 12.6474 12.5529 12.6466C12.5017 12.6458 12.4753 12.63 12.4943 12.6114C12.5132 12.5928 12.5795 12.5968 12.6416 12.6202C12.7293 12.6532 12.6801 12.7028 12.4219 12.8415C11.6535 13.2541 10.8645 13.9806 10.372 14.729C10.0867 15.1625 9.77747 15.9135 9.64946 16.4839C9.52301 17.0473 9.54068 18.4501 9.68056 18.9539C9.74249 19.177 9.77589 19.3869 9.75478 19.4205C9.73368 19.454 10.1188 20.2513 10.6107 21.1923L11.505 22.9032L10.8273 22.9021L10.1496 22.9011L9.65694 21.967C9.38596 21.4532 9.14823 21.0328 9.12866 21.0326C9.10909 21.0324 9.01146 21.1957 8.9117 21.3954C8.687 21.8454 8.11808 22.4403 7.69756 22.6651C7.02898 23.0225 5.91596 23.1375 5.13148 22.9303ZM7.08227 21.6967C8.62409 20.9308 8.64121 18.5167 7.11027 17.7496C6.50442 17.4461 5.58591 17.4634 4.97525 17.7898C3.55728 18.5477 3.51886 20.7782 4.90925 21.6221C5.50453 21.9834 6.44053 22.0155 7.08227 21.6967ZM5.75952 21.5794C6.09017 21.3847 6.45034 20.9183 6.59474 20.4977C6.74833 20.0504 6.73308 19.3155 6.56081 18.8634C6.42595 18.5094 5.93882 17.9417 5.6239 17.7716C5.51953 17.7152 5.53652 17.7056 5.72996 17.7119C6.17677 17.7265 6.74543 18.1634 7.02963 18.7105C7.2934 19.2183 7.31381 20.0963 7.07489 20.6574C6.9419 20.9697 6.47458 21.4629 6.16434 21.6183C5.87059 21.7655 5.77208 21.7787 5.94913 21.6472C6.11244 21.5259 5.99598 21.5245 5.78103 21.6452C5.49336 21.8067 5.474 21.7474 5.75952 21.5794ZM6.46405 21.2196C7.14158 20.4795 7.21115 19.2417 6.62245 18.4014C6.4339 18.1322 5.96311 17.7419 5.82701 17.7419C5.79088 17.7419 5.87767 17.8247 6.01988 17.9259C6.67166 18.3896 6.92637 18.8901 6.92768 19.7097C6.92846 20.2027 6.9025 20.3453 6.75568 20.6547C6.66057 20.8551 6.4615 21.1382 6.31328 21.2837C6.16507 21.4293 6.07063 21.5484 6.10341 21.5484C6.13619 21.5484 6.29848 21.4004 6.46405 21.2196ZM6.45667 21.5246C6.7886 21.2773 7.12983 20.798 7.2363 20.4295C7.35077 20.0334 7.33538 19.3091 7.20456 18.9355C7.07209 18.5572 6.76141 18.1368 6.43797 17.8983C6.25551 17.7637 6.24026 17.7381 6.36408 17.7745C6.45118 17.8 6.50414 17.7949 6.48395 17.7628C6.41643 17.6555 6.86365 17.72 7.13397 17.8565C8.03643 18.3124 8.43598 19.6198 7.99185 20.6637C7.86134 20.9704 7.3919 21.4641 7.08405 21.6183C6.7903 21.7655 6.69179 21.7787 6.86884 21.6472C7.0218 21.5336 6.94596 21.5186 6.74711 21.6231C6.66897 21.6641 6.50935 21.7052 6.3924 21.7143L6.17975 21.7309L6.45667 21.5246ZM6.73921 21.545C7.02144 21.3737 7.38 20.8893 7.51445 20.4977C7.66819 20.05 7.6527 19.3163 7.47981 18.8573C7.33574 18.4748 6.75334 17.8065 6.5641 17.8065C6.51408 17.8065 6.5761 17.8754 6.70191 17.9596C6.82773 18.0438 7.0304 18.2495 7.15229 18.4167C7.85065 19.3747 7.63424 20.8124 6.69064 21.4836C6.38046 21.7043 6.4117 21.7438 6.73921 21.545ZM7.35516 21.2533C7.72119 20.8633 7.88639 20.4775 7.93003 19.9108C7.97316 19.3508 7.83803 18.8237 7.54354 18.4034C7.35386 18.1326 6.88322 17.7419 6.74672 17.7419C6.71059 17.7419 6.79738 17.8247 6.93959 17.9259C7.59137 18.3896 7.84608 18.8901 7.84738 19.7097C7.84817 20.2027 7.82221 20.3453 7.67539 20.6547C7.58028 20.8551 7.3812 21.1382 7.23299 21.2837C7.08478 21.4293 6.98931 21.5484 7.02084 21.5484C7.05237 21.5484 7.20281 21.4156 7.35516 21.2533ZM13.6262 22.8782C11.0156 22.1989 9.33038 19.7283 9.65183 17.0515C9.8792 15.1582 10.9293 13.6703 12.6314 12.8297C13.4626 12.4192 14.0953 12.3033 15.3066 12.3393C16.4669 12.3738 16.903 12.4771 17.7372 12.9147C18.2863 13.2027 19.1168 13.8315 19.1168 13.9593C19.1168 14.0047 18.9912 14.2033 18.8376 14.4005C18.684 14.5976 18.5288 14.807 18.4927 14.8657C18.4361 14.9577 18.3713 14.9202 18.0252 14.5955C17.5644 14.1633 16.9093 13.8027 16.292 13.6414C15.7227 13.4927 14.5682 13.4898 14.0009 13.6357C12.73 13.9626 11.6284 14.9656 11.1899 16.1952C10.9401 16.8958 10.897 18.0868 11.0957 18.7981C11.3764 19.8031 11.952 20.6108 12.7702 21.1483C13.5524 21.6621 13.9714 21.7742 15.1095 21.7742C15.9099 21.7742 16.1359 21.7514 16.5246 21.6313C17.0742 21.4615 17.6523 21.1075 18.0822 20.6778C18.2538 20.5061 18.4055 20.3778 18.4192 20.3925C18.5543 20.5382 19.1168 21.3093 19.1168 21.3489C19.1168 21.4644 18.3958 22.0584 17.9353 22.3223C17.6649 22.4773 17.1771 22.6903 16.8514 22.7958C16.3183 22.9683 16.1574 22.9898 15.2409 23.0105C14.3293 23.031 14.1601 23.0172 13.6262 22.8782ZM22.0407 22.9284C21.0294 22.7083 20.2259 22.2583 19.4076 21.4534C18.7757 20.832 18.3882 20.2185 18.114 19.4052C17.9354 18.8754 17.9089 18.6987 17.8838 17.871C17.8599 17.0823 17.8768 16.8473 17.9916 16.3736C18.1452 15.7394 18.411 15.1237 18.729 14.6653C19.2377 13.9323 20.2727 13.0522 20.9503 12.7766C21.0809 12.7235 21.1331 12.6728 21.0865 12.6445C21.0449 12.6193 21.0947 12.5991 21.1971 12.5998C21.2994 12.6004 21.6197 12.535 21.9088 12.4545C22.6481 12.2486 23.8996 12.2422 24.7201 12.4402C26.4763 12.864 27.9339 14.1631 28.5169 15.8243C28.927 16.9927 28.9266 18.2759 28.5156 19.4805C28.2783 20.176 28.0126 20.6337 27.5132 21.207C26.8305 21.9907 25.8483 22.6105 24.865 22.8781C24.2999 23.0319 22.6512 23.0613 22.0407 22.9284H22.0407ZM24.4077 21.7066C25.9069 21.3245 27.0245 20.1736 27.3677 18.6584C27.5271 17.9549 27.468 16.84 27.237 16.1936C26.7962 14.9598 25.7004 13.9616 24.4298 13.6362C23.8738 13.4937 22.7724 13.4968 22.2091 13.6423C19.9246 14.2325 18.6394 16.7179 19.4053 19.0645C19.8092 20.3024 20.8854 21.325 22.1614 21.6836C22.6909 21.8324 23.867 21.8445 24.4077 21.7066V21.7066ZM23.8467 21.4839C23.923 21.4354 23.9251 21.4211 23.8559 21.4203C23.8068 21.4198 23.9398 21.2938 24.1515 21.1404C24.6082 20.8096 25.1421 20.2492 25.3791 19.852C25.4728 19.6949 25.6309 19.3374 25.7303 19.0574C25.8936 18.5979 25.911 18.4636 25.9097 17.6774C25.9084 16.9097 25.8875 16.7453 25.7338 16.2903C25.4009 15.3053 24.6828 14.4415 23.8139 13.9807C23.7055 13.9232 23.6422 13.875 23.6733 13.8736C23.8363 13.8661 24.5676 14.331 24.9028 14.6551C25.4027 15.1385 25.7203 15.6156 25.9228 16.1877C26.3511 17.3971 26.2202 18.7987 25.5812 19.8468C25.3263 20.2649 24.7227 20.9012 24.3852 21.1078C24.2659 21.1808 24.1838 21.2558 24.2028 21.2745C24.2602 21.3308 24.9382 20.7962 25.2058 20.4835C25.9209 19.6482 26.2339 18.794 26.2342 17.6774C26.2344 16.8875 26.1166 16.369 25.7864 15.7055C25.5156 15.1612 24.9129 14.4939 24.372 14.1391C23.8457 13.794 24.0264 13.7315 24.6547 14.0413C25.9257 14.6681 26.8029 16.1563 26.8029 17.6858C26.8029 19.1938 25.9089 20.6865 24.6208 21.3293C24.2766 21.501 24.0944 21.539 24.4051 21.3742C25.0939 21.009 25.7912 20.2745 26.1431 19.5438C26.4572 18.8916 26.5633 18.2989 26.522 17.4265C26.4693 16.311 26.1601 15.5479 25.4465 14.7721C25.1818 14.4845 24.5808 14.0317 24.53 14.0817C24.5117 14.0996 24.6005 14.1773 24.7273 14.2543C25.1071 14.4848 25.7983 15.2705 26.0417 15.7483C26.3795 16.4115 26.4992 17.0308 26.4569 17.8966C26.414 18.7743 26.2199 19.381 25.7796 20.0139C25.3869 20.5784 24.8986 21.0126 24.3219 21.3102C23.8993 21.5283 23.6103 21.6339 23.8467 21.4839ZM24.1095 21.3548C24.1637 21.3204 24.1785 21.2923 24.1423 21.2923C24.1062 21.2923 24.0323 21.3204 23.9781 21.3548C23.9239 21.3892 23.9091 21.4174 23.9453 21.4174C23.9814 21.4174 24.0553 21.3892 24.1095 21.3548ZM24.3723 13.9677C24.2819 13.917 24.1785 13.8755 24.1423 13.8755C24.1062 13.8755 24.1505 13.917 24.2409 13.9677C24.3312 14.0185 24.4347 14.0599 24.4708 14.0599C24.5069 14.0599 24.4626 14.0185 24.3723 13.9677ZM24.6503 21.5053C24.6025 21.4864 24.7285 21.3695 24.946 21.2309C25.3841 20.9517 26.042 20.2824 26.2947 19.859C26.3907 19.6981 26.5506 19.3374 26.65 19.0574C26.8133 18.5979 26.8307 18.4636 26.8294 17.6774C26.8281 16.9097 26.8072 16.7453 26.6535 16.2903C26.3206 15.3053 25.6025 14.4415 24.7336 13.9807C24.6252 13.9232 24.5619 13.875 24.593 13.8736C24.7509 13.8663 25.4779 14.3239 25.8113 14.6404C26.9591 15.7298 27.3682 17.3041 26.9269 18.9335C26.7785 19.4813 26.3927 20.0863 25.8455 20.629C25.5503 20.9218 25.3369 21.1613 25.3713 21.1613C25.4056 21.1613 25.6651 20.9312 25.948 20.65C26.7929 19.8101 27.1568 18.9154 27.1568 17.6774C27.1568 16.8849 27.039 16.3744 26.6986 15.6906C26.421 15.1328 25.8226 14.4755 25.2591 14.1092C24.8058 13.8145 24.9572 13.8414 25.4788 14.1483C25.989 14.4484 26.6743 15.1846 26.9532 15.7322C27.2991 16.4112 27.4192 17.0251 27.3766 17.8966C27.3184 19.0869 26.888 20.0085 26.0311 20.7777C25.7464 21.0332 24.8484 21.5706 24.7516 21.5433C24.7417 21.5405 24.6961 21.5234 24.6503 21.5053ZM25.0382 21.3503C25.1848 21.2769 25.2913 21.2036 25.2749 21.1875C25.2585 21.1714 25.1152 21.2312 24.9565 21.3203C24.608 21.5159 24.6655 21.5371 25.0382 21.3503ZM8.47514 22.6141C8.35473 22.3977 8.33315 22.3065 8.38924 22.2514C8.44533 22.1964 8.50672 22.2604 8.63354 22.5061C8.8281 22.8832 8.83243 22.9032 8.71944 22.9032C8.67352 22.9032 8.56358 22.7731 8.47514 22.6141ZM8.74217 22.5369C8.52345 22.1403 8.50937 22.0908 8.59976 22.036C8.63254 22.0161 8.76557 22.1895 8.89538 22.4215C9.16388 22.9012 9.16448 22.9032 9.03779 22.9032C8.98631 22.9032 8.85328 22.7384 8.74217 22.5369ZM8.96717 22.3871C8.80051 22.0514 8.73336 21.849 8.77507 21.808C8.81678 21.767 8.94935 21.9475 9.15428 22.3241C9.42564 22.8229 9.4523 22.9032 9.34638 22.9032C9.2578 22.9032 9.15172 22.7589 8.96717 22.3871ZM9.21127 22.2726C9.00023 21.8763 8.89513 21.6107 8.92842 21.5578C8.98567 21.4668 9.14236 21.6998 9.51747 22.4336C9.75118 22.8909 9.75427 22.9032 9.63486 22.9032C9.58659 22.9032 9.39597 22.6194 9.21127 22.2726ZM9.464 22.1774C9.09356 21.4984 8.99427 21.2258 9.11744 21.2258C9.16313 21.2258 10.0511 22.791 10.0511 22.8715C10.0511 22.8889 10.0081 22.9032 9.95555 22.9032C9.90106 22.9032 9.68979 22.5913 9.464 22.1774ZM3.13352 22.6283C2.38978 22.2206 1.79921 21.4826 1.55007 20.6496C1.39884 20.1439 1.4117 19.2171 1.57726 18.6907C1.82775 17.8942 2.42739 17.1938 3.20885 16.7847C3.73219 16.5108 3.7999 16.5251 3.31367 16.8068C2.89177 17.0513 2.38323 17.5523 2.12993 17.9729C1.55548 18.9269 1.50675 20.2206 2.00621 21.2575C2.2252 21.7121 2.85607 22.3836 3.30645 22.6415C3.76356 22.9032 3.61426 22.8918 3.13352 22.6283ZM3.44892 22.6287C2.6351 22.2021 2.00925 21.3599 1.8073 20.4194C1.68625 19.8556 1.68541 19.5671 1.80324 19.0211C1.93234 18.4228 2.19417 17.9319 2.63749 17.4567C3.07485 16.988 3.86167 16.5303 4.05112 16.6344C4.1454 16.6862 4.13041 16.7106 3.94677 16.8038C3.82883 16.8637 3.74562 16.9258 3.76186 16.9418C3.77811 16.9577 3.92128 16.8979 4.08001 16.8087C4.52535 16.5587 4.53406 16.6156 4.09327 16.8954C3.70627 17.1411 3.17907 17.7037 2.97793 18.0857C2.46589 19.0581 2.44937 20.2863 2.93514 21.2667C3.16624 21.7331 3.77852 22.3851 4.22616 22.6415C4.41291 22.7484 4.53614 22.8355 4.50001 22.835C4.46388 22.8346 4.36041 22.7927 4.27008 22.7419C4.08096 22.6358 3.98341 22.6195 4.0359 22.7029C4.05589 22.7347 4.02566 22.7782 3.96871 22.7997C3.8412 22.8478 3.91017 22.8704 3.44891 22.6287L3.44892 22.6287ZM3.83921 22.6741C3.71642 22.5777 3.71778 22.5753 3.87592 22.6108C4.02928 22.6453 4.03159 22.6423 3.91069 22.5658C3.83949 22.5207 3.59892 22.3154 3.3761 22.1096C2.69689 21.4822 2.36498 20.7056 2.36498 19.7438C2.36498 18.7413 2.63308 18.0804 3.32523 17.3768C3.54658 17.1518 3.70444 16.9677 3.67602 16.9677C3.55839 16.9677 2.88271 17.7257 2.70285 18.0595C2.40768 18.6072 2.29928 19.0499 2.29928 19.7078C2.29928 20.7608 2.56558 21.414 3.29255 22.144C3.53173 22.3841 3.71259 22.5807 3.69446 22.5807C3.58074 22.5807 3.17215 22.2594 2.88849 21.947C1.9465 20.9095 1.76557 19.3695 2.43935 18.124C2.68392 17.6719 3.25757 17.0899 3.6826 16.8627C3.86155 16.7671 3.99504 16.6761 3.97923 16.6606C3.96342 16.6451 3.79732 16.7142 3.61011 16.8143C3.1937 17.0369 2.55422 17.7085 2.33452 18.1541C1.56819 19.7082 2.05916 21.6498 3.44012 22.5263C3.82644 22.7716 4.08554 22.8675 3.83921 22.6741V22.6741ZM2.65884 22.5262C0.880808 21.4183 0.587727 18.9279 2.05721 17.414C2.37977 17.0816 3.12064 16.5916 3.19301 16.6626C3.21056 16.6799 3.09034 16.7714 2.92584 16.8661C2.26558 17.2461 1.63115 18.1167 1.4414 18.9032C1.31649 19.4209 1.34518 20.2732 1.50437 20.7742C1.72932 21.4821 2.30418 22.2332 2.87032 22.5591C3.02596 22.6486 3.1533 22.7337 3.1533 22.748C3.1533 22.8124 3.02741 22.7559 2.65884 22.5262ZM11.6817 22.5143C11.4765 22.4103 11.29 22.2955 11.2672 22.2593C11.215 22.1763 11.3177 22.1729 11.4012 22.2549C11.4356 22.2887 11.6263 22.4043 11.8249 22.5118C12.2871 22.762 12.174 22.7639 11.6817 22.5143V22.5143ZM11.9234 22.4644C11.3031 22.138 11.1101 22.006 11.025 21.8499C10.9696 21.7482 11.0191 21.7665 11.2412 21.9298C11.737 22.2944 12.0233 22.4718 12.0591 22.4366C12.078 22.418 11.9644 22.3284 11.8065 22.2376C11.3855 21.9953 10.8515 21.5019 10.705 21.2199C10.5941 21.0065 10.6493 21.0449 11.1188 21.5074C11.4168 21.801 11.8525 22.1625 12.0871 22.3109C12.3216 22.4593 12.4694 22.5811 12.4155 22.5816C12.329 22.5825 12.3291 22.59 12.416 22.6452C12.6626 22.8016 12.338 22.6825 11.9233 22.4644H11.9234ZM12.2847 22.5161C12.2305 22.4817 12.1566 22.4536 12.1204 22.4536C12.0843 22.4536 12.0991 22.4817 12.1533 22.5161C12.2075 22.5505 12.2814 22.5787 12.3175 22.5787C12.3537 22.5787 12.3389 22.5505 12.2847 22.5161ZM19.6193 22.5087C19.408 22.4016 19.2204 22.3283 19.2026 22.3459C19.1847 22.3634 19.2837 22.4367 19.4226 22.5086C19.5615 22.5806 19.6518 22.6407 19.6233 22.6423C19.4634 22.6511 18.4685 22.051 18.5816 22.0139C18.6209 22.0011 18.7582 22.0693 18.8867 22.1656C19.0152 22.2618 19.1359 22.3253 19.1549 22.3067C19.1739 22.288 19.0844 22.209 18.956 22.1311C18.8277 22.0532 18.7226 21.9628 18.7226 21.9302C18.7226 21.8341 18.7679 21.8565 19.1895 22.1613C19.4104 22.321 19.6233 22.4516 19.6627 22.4516C19.7529 22.4516 19.7066 22.4141 19.2318 22.1029C19.024 21.9667 18.854 21.8298 18.854 21.7986C18.854 21.7049 18.9217 21.7326 19.1764 21.9307C19.3099 22.0346 19.5795 22.2233 19.7756 22.3501C19.9716 22.4769 20.0884 22.5811 20.035 22.5816C19.9504 22.5825 19.9506 22.5907 20.0365 22.6452C20.2491 22.7801 19.9833 22.6932 19.6193 22.5087ZM19.9051 22.5161C19.8509 22.4817 19.777 22.4536 19.7409 22.4536C19.7047 22.4536 19.7195 22.4817 19.7737 22.5161C19.8279 22.5505 19.9018 22.5787 19.938 22.5787C19.9741 22.5787 19.9593 22.5505 19.9051 22.5161ZM20.2007 22.4974C19.4628 22.1054 18.8296 21.6129 19.0636 21.6129C19.1178 21.6129 19.2179 21.6734 19.2861 21.7474C19.4594 21.9355 20.036 22.3446 20.0745 22.3068C20.092 22.2896 20.0241 22.2236 19.9236 22.1601C19.5741 21.9392 19.1169 21.5359 19.1522 21.4798C19.1718 21.4487 19.4157 21.6113 19.6943 21.8412C19.9728 22.071 20.3837 22.3526 20.6072 22.4669C20.8308 22.5812 21.0038 22.6845 20.9916 22.6964C20.9795 22.7084 20.7861 22.6272 20.562 22.5161C20.3379 22.405 20.1399 22.3286 20.122 22.3462C20.104 22.3638 20.2327 22.4514 20.4078 22.5409C20.583 22.6304 20.6967 22.7044 20.6606 22.7052C20.6245 22.7061 20.4175 22.6125 20.2007 22.4974ZM11.4596 22.5448C11.3394 22.4502 11.3415 22.4489 11.4964 22.5213C11.6974 22.6154 11.7347 22.6452 11.6512 22.6452C11.616 22.6452 11.5298 22.6 11.4596 22.5448ZM15.7076 21.4249C15.6369 21.3809 15.6629 21.344 15.8212 21.2636C15.9341 21.2063 16.2201 20.9815 16.4566 20.7642C16.6932 20.5469 16.9062 20.3882 16.93 20.4115C16.9942 20.4746 16.4981 20.954 16.174 21.1422C16.0189 21.2323 15.908 21.3218 15.9277 21.3412C15.9883 21.4006 16.6791 20.8986 16.9452 20.6017C17.1305 20.395 17.2068 20.346 17.2342 20.4161C17.2829 20.5408 16.7154 21.0291 16.2211 21.2878C15.7977 21.5095 15.8298 21.5009 15.7076 21.4249ZM16.4624 21.2339C16.6758 21.0964 16.9822 20.8497 17.1432 20.6855C17.4384 20.3848 17.5402 20.3267 17.5402 20.4591C17.5402 20.5525 17.0357 21.012 16.795 21.1378C16.6923 21.1914 16.6232 21.2501 16.6416 21.2681C16.7046 21.3299 16.9825 21.1394 17.3926 20.7531C17.6186 20.5403 17.8255 20.3881 17.8525 20.415C17.8794 20.4418 17.7301 20.6207 17.5207 20.8125C17.3112 21.0044 17.1706 21.1613 17.2081 21.1613C17.2456 21.1613 17.4673 20.9773 17.7009 20.7524C17.9708 20.4925 18.1374 20.3738 18.158 20.4267C18.2368 20.6282 16.9014 21.5362 16.6601 21.4453C16.6026 21.4236 16.5719 21.3798 16.5919 21.3481C16.6443 21.2647 16.5468 21.2809 16.3577 21.3871C16.0188 21.5774 16.0892 21.4744 16.4624 21.2339ZM16.9583 21.3178C17.0682 21.262 17.1419 21.2003 17.122 21.1807C17.1021 21.1612 16.9885 21.2064 16.8695 21.2812C16.6156 21.4409 16.6709 21.4638 16.9583 21.3178ZM16.965 20.3093C16.926 20.2632 16.8288 20.0659 16.749 19.8708C16.1843 18.4904 16.1618 16.9505 16.687 15.6253C16.935 14.9996 16.988 14.9158 17.0791 15.0053C17.1286 15.0539 17.1034 15.1765 16.9933 15.4241C16.67 16.151 16.5876 16.6084 16.5876 17.6774C16.5876 18.7341 16.6498 19.0888 16.973 19.8746C17.1227 20.2385 17.118 20.4904 16.965 20.3093ZM17.095 19.9479C16.7803 19.2567 16.6793 18.809 16.6401 17.9308C16.5997 17.0267 16.6953 16.3924 16.9876 15.6255C17.3507 14.6728 17.5179 14.7569 17.1897 15.7271C16.7269 17.0953 16.7258 18.2802 17.186 19.6048C17.4623 20.3998 17.4028 20.6239 17.095 19.9479H17.095ZM17.4082 19.9768C16.9059 18.8888 16.7875 17.4491 17.1019 16.2523C17.2911 15.5323 17.5809 14.9175 17.6837 15.0184C17.7299 15.0638 17.6989 15.2137 17.5853 15.494C17.2511 16.3183 17.1842 16.6824 17.1842 17.6774C17.1842 18.6725 17.2511 19.0366 17.5853 19.8609C17.7047 20.1556 17.7312 20.2898 17.6798 20.3403C17.6284 20.3908 17.5523 20.289 17.4082 19.9768ZM17.8855 20.3092C17.7756 20.1773 17.4994 19.4718 17.369 18.9894C17.208 18.3942 17.2049 16.9906 17.3633 16.3659C17.5145 15.7692 17.8657 14.9557 17.9581 14.9879C18.0569 15.0223 18.0446 15.0772 17.7616 15.871C17.5429 16.484 17.517 16.6286 17.489 17.3924C17.4536 18.3573 17.5566 19.0054 17.8725 19.8046C18.0472 20.2467 18.054 20.5113 17.8855 20.3092H17.8855ZM18.0317 19.9867C17.4278 18.6682 17.3805 17.0077 17.9073 15.6255C18.2709 14.6717 18.4375 14.7572 18.1088 15.7289C17.605 17.2182 17.6552 18.5574 18.2704 20.0475C18.331 20.1943 18.336 20.2765 18.2871 20.3245C18.2382 20.3725 18.1624 20.2722 18.0317 19.9867ZM9.10537 18.2094C8.99982 17.9787 8.98668 17.841 9.01926 17.3073C9.07573 16.3822 9.32561 15.5751 9.79788 14.7923C10.0742 14.3343 11.0327 13.3713 11.4501 13.1324C11.6233 13.0332 11.749 12.9362 11.7293 12.9169C11.6661 12.8549 10.9522 13.3746 10.5515 13.7742C9.53236 14.7906 8.94075 16.1266 8.93141 17.4328L8.92851 17.8387L8.80393 17.6073C8.69367 17.4024 8.68697 17.3208 8.74566 16.8976C8.8296 16.2923 9.14501 15.356 9.40644 14.9363C9.72839 14.4193 10.2486 13.821 10.6747 13.4777C11.1589 13.0876 12.0335 12.6288 12.1845 12.6857C12.2687 12.7175 12.2291 12.7638 12.0098 12.8906C10.7958 13.5925 9.83875 14.7826 9.45611 16.0663C9.3507 16.4199 9.30141 16.806 9.27117 17.515L9.22994 18.4817L9.10537 18.2094ZM12.0219 12.8065C12.1122 12.7557 12.1566 12.7143 12.1204 12.7143C12.0843 12.7143 11.9808 12.7557 11.8905 12.8065C11.8002 12.8572 11.7558 12.8987 11.792 12.8987C11.8281 12.8987 11.9316 12.8572 12.0219 12.8065ZM8.50149 17.0875C8.34868 16.8447 8.69863 15.5997 9.11338 14.9106C9.58557 14.1261 10.5443 13.2363 11.3199 12.8627C11.5637 12.7453 11.6635 12.6664 11.6103 12.6332C11.5657 12.6054 11.5588 12.5826 11.5949 12.5826C11.631 12.5826 11.7014 12.608 11.7514 12.6391C11.8233 12.6838 11.8143 12.7043 11.7087 12.7372C11.4464 12.8189 10.741 13.3104 10.3264 13.7003C9.81953 14.1769 9.39996 14.7387 9.13386 15.2972C8.92288 15.74 8.67154 16.6167 8.67154 16.9097C8.67154 17.1072 8.57642 17.2066 8.50149 17.0875ZM8.24353 16.5775C8.18569 16.3986 8.4348 15.6132 8.71801 15.0817C9.1583 14.2553 10.0016 13.4159 10.8786 12.9311C11.3461 12.6726 11.5379 12.63 11.1022 12.8815C9.77211 13.6489 8.73824 15.0098 8.46308 16.3554C8.38714 16.7268 8.31526 16.7995 8.24353 16.5775ZM6.45791 16.3345C6.36927 16.2804 4.33578 12.4416 4.33578 12.3283C4.33578 12.0938 4.555 12.403 5.04379 13.327C6.63707 16.3387 6.70638 16.4861 6.45791 16.3345ZM5.10166 16.1774C4.80663 15.7076 3.09572 12.3619 3.12594 12.3139C3.20941 12.1812 3.25441 12.2584 4.75876 15.1129C5.21487 15.9784 5.36731 16.3226 5.29454 16.3226C5.23859 16.3226 5.1518 16.2573 5.10166 16.1774ZM4.44711 14.3659C3.88004 13.2897 3.41607 12.3728 3.41607 12.3283C3.41607 12.0669 3.69002 12.509 4.61497 14.2631C5.18404 15.3422 5.64965 16.2471 5.64965 16.2739C5.64965 16.3007 5.61106 16.3226 5.5639 16.3226C5.51674 16.3226 5.01418 15.4421 4.44711 14.3659ZM5.21875 15.2419C4.90426 14.6476 4.4294 13.7522 4.1635 13.2521C3.72495 12.4274 3.66564 12.2581 3.81525 12.2581C3.85827 12.2581 5.97811 16.2108 5.97811 16.291C5.97811 16.3084 5.93591 16.3226 5.88433 16.3226C5.82958 16.3226 5.55261 15.8729 5.21875 15.2419ZM6.02137 16.1774C5.72634 15.7076 4.01542 12.3619 4.04565 12.3139C4.13031 12.1793 4.21649 12.3262 5.61261 14.9839C6.11361 15.9376 6.28661 16.3226 6.21419 16.3226C6.15828 16.3226 6.07151 16.2573 6.02137 16.1774ZM16.552 14.6693C16.3909 14.5052 16.0846 14.2584 15.8712 14.1209C15.405 13.8205 15.451 13.7942 15.9582 14.0712C16.3078 14.2621 16.9489 14.8094 16.9489 14.9169C16.9489 15.0275 16.8319 14.9546 16.552 14.6693ZM16.8777 14.6703C16.7181 14.5097 16.4138 14.2663 16.2013 14.1294C15.8232 13.8857 15.8197 13.8807 16.0371 13.898C16.3196 13.9204 16.7006 14.1119 17.1379 14.4514C17.4781 14.7155 17.5954 14.8705 17.515 14.9494C17.4923 14.9718 17.3723 14.8737 17.2483 14.7315C17.008 14.4558 16.3159 13.955 16.2561 14.0137C16.2365 14.033 16.3473 14.1226 16.5025 14.2127C16.8407 14.409 17.3139 14.8735 17.2285 14.9253C17.1951 14.9456 17.0372 14.8308 16.8777 14.6703ZM17.4717 14.6693C17.3106 14.5052 17.0043 14.2584 16.7909 14.1209C16.34 13.8304 16.354 13.8016 16.8307 14.0388C17.1569 14.2012 17.8686 14.8003 17.8686 14.9126C17.8686 15.0276 17.755 14.958 17.4717 14.6693ZM17.7974 14.6703C17.6378 14.5097 17.3299 14.2609 17.1131 14.1173C16.6641 13.8198 16.8081 13.839 17.3265 14.1457C17.7215 14.3794 18.239 14.8702 18.1484 14.9252C18.1149 14.9455 17.9569 14.8308 17.7974 14.6703V14.6703ZM19.1531 13.8765C19.1096 13.8074 19.799 13.2185 20.1058 13.0627C20.2122 13.0086 20.2993 12.9507 20.2993 12.9338C20.2993 12.8416 20.1142 12.9462 19.6119 13.3226C19.3041 13.5532 19.0372 13.7419 19.0189 13.7419C18.8001 13.7419 19.5438 13.1811 20.1827 12.8643C20.6 12.6573 20.8436 12.5727 20.6277 12.7097C20.5408 12.7649 20.5407 12.7723 20.6272 12.7732C20.6811 12.7737 20.5402 12.8929 20.314 13.0381C20.0878 13.1832 19.743 13.4453 19.5477 13.6206C19.3524 13.7959 19.1749 13.9111 19.1532 13.8765H19.1531ZM20.4964 12.8387C20.5506 12.8043 20.5653 12.7762 20.5292 12.7762C20.4931 12.7762 20.4192 12.8043 20.365 12.8387C20.3108 12.8731 20.296 12.9013 20.3321 12.9013C20.3683 12.9013 20.4422 12.8731 20.4964 12.8387ZM18.854 13.5471C18.854 13.4703 19.7209 12.9026 20.0306 12.7766C20.1837 12.7143 20.2185 12.6755 20.1559 12.6365C20.1083 12.6069 20.0989 12.5826 20.135 12.5826C20.1712 12.5826 20.2375 12.6055 20.2824 12.6335C20.3373 12.6678 20.2716 12.7285 20.0817 12.8191C19.9265 12.8932 19.5999 13.1021 19.3561 13.2833C18.8846 13.6338 18.854 13.6499 18.854 13.5471ZM18.7226 13.4205C18.7226 13.3815 18.8708 13.2591 19.0518 13.1486C19.2328 13.038 19.3659 12.9328 19.3474 12.9147C19.329 12.8966 19.1505 12.9923 18.9508 13.1273C18.7511 13.2624 18.5721 13.3575 18.5529 13.3387C18.4561 13.2436 19.6453 12.6256 19.8075 12.6867C19.888 12.717 19.845 12.7664 19.6302 12.8901C19.4743 12.9799 19.2433 13.1309 19.1168 13.2256C18.7957 13.466 18.7226 13.5021 18.7226 13.4205ZM19.6423 12.8065C19.7327 12.7557 19.777 12.7143 19.7409 12.7143C19.7047 12.7143 19.6013 12.7557 19.511 12.8065C19.4206 12.8572 19.3763 12.8987 19.4124 12.8987C19.4485 12.8987 19.552 12.8572 19.6423 12.8065ZM15.9635 12.2195C14.5065 11.9559 13.5511 11.4619 12.65 10.506C12.0887 9.91065 11.7339 9.32292 11.4792 8.56647C11.302 8.04032 11.274 7.85594 11.2482 7.04536C11.2232 6.25994 11.2399 6.0333 11.3609 5.51907C11.6665 4.22025 12.4703 3.07501 13.6096 2.31519C14.453 1.75276 15.3019 1.48936 16.4398 1.4371C18.148 1.35865 19.419 1.8064 20.5798 2.89547C21.7216 3.9668 22.2701 5.24639 22.2701 6.83872C22.2701 7.87207 22.0189 8.8059 21.5128 9.65395C21.3348 9.95226 21.3335 9.96341 21.3458 11.0473C21.3575 12.0707 21.3508 12.1386 21.2394 12.1176C21.1331 12.0976 21.1185 12.0068 21.102 11.2651C21.0873 10.6057 21.1042 10.4041 21.1841 10.2843C21.3902 9.97542 21.2728 10.047 20.8899 10.4636C19.8256 11.6217 18.5717 12.1827 16.9489 12.2268C16.4973 12.2391 16.0538 12.2358 15.9635 12.2195ZM17.9343 10.8614C19.8854 10.3279 21.1534 8.36803 20.8907 6.29202C20.7647 5.29638 20.4339 4.6019 19.7429 3.88268C18.9941 3.10323 18.1445 2.7292 16.9818 2.66712C15.5409 2.59019 14.347 3.10335 13.4767 4.17361C12.8444 4.95122 12.5852 5.71511 12.5834 6.80646C12.582 7.64386 12.6697 8.04345 13.0083 8.74256C13.5784 9.91974 14.776 10.7926 16.062 10.9683C16.5735 11.0382 17.4765 10.9866 17.9343 10.8614ZM17.1788 10.5691C17.7833 10.2587 18.4594 9.612 18.8317 8.98826C19.322 8.16662 19.512 6.84879 19.2847 5.8458C19.0564 4.83763 18.3808 3.85185 17.5406 3.30086C17.2617 3.11796 17.1789 3.03368 17.2512 3.00641C17.307 2.9854 17.4076 2.99714 17.4749 3.03249C17.6391 3.1188 17.8076 3.11861 17.6715 3.03224C17.4636 2.90027 17.693 2.97645 18.084 3.16921C18.684 3.465 19.4928 4.28858 19.7927 4.90914C20.7062 6.79909 20.1426 9.11272 18.4975 10.2254C18.2961 10.3616 18.1456 10.4871 18.163 10.5042C18.2192 10.5593 18.7399 10.1716 19.1141 9.79592C19.8678 9.03933 20.2259 8.19962 20.2817 7.05783C20.3082 6.51585 20.2894 6.22082 20.2045 5.84577C19.9748 4.83205 19.292 3.8395 18.4545 3.30213C18.157 3.11121 18.086 3.03841 18.1672 3.00777C18.2272 2.98517 18.4258 3.0412 18.6139 3.13376C19.3805 3.51107 20.0407 4.16825 20.4273 4.93887C20.9968 6.07411 20.9631 7.72682 20.3473 8.86155C20.0839 9.34675 19.3633 10.1023 18.9106 10.3678C18.3731 10.683 18.2449 10.6987 18.704 10.393C19.9885 9.53803 20.709 8.08045 20.6063 6.54499C20.5324 5.439 20.125 4.54134 19.3531 3.78329C19.0159 3.45206 18.3888 3.03345 18.2299 3.03345C18.1938 3.03345 18.3268 3.12441 18.5256 3.23559C18.7243 3.34678 19.099 3.64854 19.3582 3.90618C20.4916 5.03266 20.8382 6.66327 20.2927 8.30259C20.0099 9.15242 19.2314 10.0473 18.4031 10.4748C17.954 10.7065 17.6809 10.7967 18 10.6079L18.1642 10.5107L18 10.5475L17.8358 10.5842L17.9975 10.4695C18.7893 9.90792 19.2507 9.40157 19.5778 8.73543C20.1599 7.54983 20.1263 5.91774 19.4958 4.75594C19.2417 4.28782 18.57 3.56672 18.1294 3.28902C17.9471 3.17414 17.7829 3.09488 17.7646 3.11287C17.7463 3.13087 17.8671 3.22376 18.0331 3.31931C18.7156 3.71207 19.3919 4.55226 19.6897 5.37716C19.9363 6.06028 19.9768 7.25588 19.7774 7.96942C19.6991 8.24987 19.5421 8.65051 19.4285 8.85975C19.1643 9.34654 18.4442 10.102 17.9909 10.3678C17.4534 10.683 17.3252 10.6987 17.7843 10.393C20.0257 8.90103 20.362 5.72302 18.4792 3.82579C18.1643 3.50843 17.5854 3.09678 17.4541 3.09678C17.4209 3.09678 17.5741 3.21501 17.7944 3.35952C19.373 4.39479 20.0124 6.39582 19.3738 8.30261C19.0919 9.14443 18.3029 10.0518 17.4867 10.4731C17.2345 10.6032 17.003 10.7084 16.9721 10.7068C16.9413 10.7053 17.0343 10.6433 17.1788 10.5691ZM37.663 12.1974C37.4757 12.1681 37.1161 12.0826 36.864 12.0074C36.6119 11.9322 36.3513 11.888 36.2849 11.9092C36.2078 11.9338 36.1924 11.9275 36.2423 11.8918C36.2949 11.8542 36.1878 11.7678 35.9138 11.627C34.6886 10.9969 33.6286 9.71213 33.2394 8.38534C33.0569 7.76314 32.9916 6.49543 33.1086 5.84738C33.2181 5.24037 33.4929 4.48632 33.7715 4.02809C34.0839 3.51423 34.9411 2.63857 35.4693 2.29369C36.0272 1.92945 36.7799 1.6319 37.4684 1.50349C38.1239 1.38121 39.5132 1.42295 40.1035 1.58266C42.0359 2.10547 43.5731 3.712 43.9766 5.63038C44.1049 6.24081 44.11 7.43257 43.9866 8.00425C43.5631 9.96584 42.0283 11.5546 40.0549 12.0742C39.5197 12.215 38.2079 12.2826 37.663 12.1974ZM39.9416 10.8012C41.2077 10.4076 42.2473 9.29372 42.6162 7.93549C42.7697 7.37029 42.7656 6.24665 42.6079 5.67742C42.219 4.27348 41.1792 3.21694 39.7739 2.79768C39.1798 2.62044 37.8914 2.63272 37.281 2.82143C35.944 3.2348 34.8819 4.35393 34.5092 5.74194C34.2431 6.73295 34.4353 8.14548 34.9538 9.00826C35.4328 9.8055 36.3902 10.5597 37.281 10.8417C37.9874 11.0653 39.149 11.0477 39.9416 10.8012ZM39.1185 10.4983C39.6629 10.2097 40.3782 9.49072 40.6776 8.9311C41.0849 8.16991 41.2095 7.59913 41.1757 6.64913C41.1523 5.98974 41.1152 5.75087 40.9766 5.36731C40.6553 4.47851 39.9283 3.60902 39.1308 3.15983C38.6735 2.90222 38.805 2.91545 39.3058 3.17742C40.1489 3.61848 40.914 4.52336 41.226 5.44844C41.7763 7.08014 41.237 9.04367 39.9665 10.034C39.5065 10.3926 39.5122 10.3871 39.5988 10.3871C39.7379 10.3871 40.5922 9.5424 40.8629 9.13722C41.428 8.2915 41.6584 6.95801 41.4227 5.8973C41.1929 4.86308 40.6053 3.97242 39.7601 3.37724C39.1707 2.96213 39.2816 2.85742 39.947 3.20082C40.7821 3.63177 41.5489 4.54842 41.8569 5.48388C42.0499 6.07036 42.0951 7.22537 41.949 7.83872C41.7324 8.74755 41.0743 9.72321 40.3411 10.2222C40.1923 10.3234 40.0845 10.4199 40.1016 10.4367C40.1652 10.4992 40.8189 9.96683 41.1319 9.59755C41.7984 8.81096 42.1101 7.931 42.1085 6.84001C42.1067 5.56782 41.7581 4.68895 40.9282 3.86382C40.6566 3.59376 40.2717 3.28193 40.073 3.17088C39.6713 2.94641 39.6713 2.89554 40.073 3.09678C40.3738 3.24748 40.489 3.26237 40.3068 3.12699C40.101 2.97416 40.2664 3.01811 40.5928 3.203C41.3487 3.63127 42.0874 4.46505 42.3772 5.21721C42.8077 6.33474 42.7638 7.65325 42.2612 8.69737C42.053 9.12974 41.5377 9.76535 41.1369 10.0839C40.8454 10.3157 40.1365 10.713 40.0256 10.7068C39.9975 10.7053 40.0881 10.6451 40.227 10.5731C40.3659 10.5012 40.4649 10.4279 40.447 10.4104C40.4291 10.3928 40.2654 10.4527 40.0831 10.5434C39.5634 10.802 39.458 10.6822 39.9356 10.3757C40.7628 9.84491 41.4324 8.91604 41.6948 7.93549C41.847 7.36657 41.8446 6.23858 41.69 5.68301C41.5404 5.14574 41.2028 4.50065 40.8624 4.10155C40.5617 3.74915 39.845 3.1594 39.7238 3.16468C39.681 3.16654 39.7188 3.21735 39.8077 3.27758C40.7818 3.93734 41.3461 4.70229 41.6253 5.74194C41.776 6.30286 41.7747 7.37554 41.6226 7.9299C41.4094 8.70692 40.9303 9.46771 40.3257 9.98901C40.0554 10.2221 39.3606 10.6465 39.2557 10.6426C39.2174 10.6412 39.27 10.5953 39.3726 10.5408C39.6972 10.368 39.5099 10.3709 39.162 10.5441C38.6856 10.7811 38.6519 10.7457 39.1185 10.4983V10.4983ZM39.9416 10.5484C40.0319 10.4977 40.0763 10.4562 40.0401 10.4562C40.004 10.4562 39.9005 10.4977 39.8102 10.5484C39.7199 10.5991 39.6755 10.6406 39.7117 10.6406C39.7478 10.6406 39.8513 10.5991 39.9416 10.5484ZM40.8822 10.1322C41.8555 9.34233 42.3521 8.34025 42.4185 7.03226C42.4757 5.90533 42.1751 4.95992 41.4912 4.11629C41.1967 3.75297 40.496 3.17596 40.4291 3.24167C40.4101 3.26034 40.4942 3.3361 40.616 3.41003C40.9106 3.58881 41.5043 4.21208 41.7619 4.61291C42.0798 5.10758 42.3131 5.86945 42.3543 6.54748C42.4374 7.91641 41.8637 9.27309 40.8765 10.0418C40.4311 10.3886 40.4328 10.3871 40.5045 10.3871C40.5395 10.3871 40.7094 10.2724 40.8822 10.1322ZM39.6131 3.09678C39.5589 3.06238 39.485 3.03424 39.4489 3.03424C39.4128 3.03424 39.4276 3.06238 39.4818 3.09678C39.5359 3.13118 39.6099 3.15932 39.646 3.15932C39.6821 3.15932 39.6673 3.13118 39.6131 3.09678ZM3.02191 6.83872C3.02191 2.17922 3.03366 1.54839 3.12045 1.54839C3.20724 1.54839 3.21899 2.17922 3.21899 6.83872C3.21899 11.4982 3.20724 12.129 3.12045 12.129C3.03366 12.129 3.02191 11.4982 3.02191 6.83872ZM3.28468 6.83872C3.28468 1.5914 3.28575 1.54839 3.41607 1.54839C3.54639 1.54839 3.54746 1.5914 3.54746 6.83872C3.54746 12.086 3.54639 12.129 3.41607 12.129C3.28575 12.129 3.28468 12.086 3.28468 6.83872ZM3.61315 6.83872C3.61315 2.17922 3.6249 1.54839 3.71169 1.54839C3.79848 1.54839 3.81023 2.17922 3.81023 6.83872C3.81023 11.4982 3.79848 12.129 3.71169 12.129C3.6249 12.129 3.61315 11.4982 3.61315 6.83872ZM3.94162 6.83872C3.94162 2.17922 3.95337 1.54839 4.04016 1.54839C4.12695 1.54839 4.1387 2.17922 4.1387 6.83872C4.1387 11.4982 4.12695 12.129 4.04016 12.129C3.95337 12.129 3.94162 11.4982 3.94162 6.83872ZM4.20439 6.83872C4.20439 1.5914 4.20546 1.54839 4.33578 1.54839C4.4661 1.54839 4.46716 1.5914 4.46716 6.83872C4.46716 12.086 4.46609 12.129 4.33578 12.129C4.20546 12.129 4.20439 12.086 4.20439 6.83872ZM4.53286 6.83391V1.53879L6.61862 1.56331C8.53127 1.58579 8.73464 1.59891 9.06886 1.72144C9.6865 1.94787 9.99728 2.13102 10.3932 2.50188C11.0013 3.07154 11.2984 3.8078 11.2969 4.74194C11.2965 5.02581 11.2665 5.3742 11.2303 5.51614C11.1263 5.92394 11.1007 6.88282 11.1769 7.51424C11.3825 9.21703 12.2628 10.5736 13.7894 11.5401C14.0208 11.6866 14.1686 11.8069 14.1179 11.8074C14.0428 11.8083 14.0439 11.8201 14.1241 11.871C14.1783 11.9054 14.1931 11.9335 14.1569 11.9335C14.1208 11.9335 14.0469 11.9054 13.9927 11.871C13.9051 11.8154 13.9051 11.8082 13.9927 11.8065C14.0803 11.8047 14.0803 11.7975 13.9927 11.7419C13.8615 11.6587 13.7774 11.6608 13.8311 11.7461C13.8548 11.7838 13.6979 11.7273 13.4822 11.6204C12.7042 11.2347 11.8385 10.4254 11.3311 9.60941C11.0294 9.12413 10.7305 8.21856 10.6431 7.52431C10.581 7.03128 10.585 6.93658 10.6723 6.84181C10.7281 6.78129 10.7737 6.70787 10.7737 6.67865C10.7737 6.64943 10.5967 6.79135 10.3803 6.99403C9.94949 7.39763 9.28027 7.73987 8.67154 7.86791C8.47282 7.90971 7.75594 7.96097 7.07848 7.98182L5.84673 8.01973V10.0744V12.129H5.18979H4.53286V6.83391V6.83391ZM13.4338 11.4241C12.8553 11.0518 12.508 10.7402 12.074 10.2038C11.4922 9.48485 11.143 8.71474 10.9742 7.77848C10.8735 7.22025 10.8893 6.50986 11.0057 6.35864C11.0588 6.28977 11.1009 6.18815 11.0993 6.13284C11.0977 6.07752 11.033 6.14839 10.9556 6.29033C10.8414 6.49977 10.8181 6.63956 10.8318 7.03227C10.8822 8.46866 11.4267 9.71608 12.4434 10.7245C12.8556 11.1333 13.6036 11.6774 13.7533 11.6774C13.794 11.6774 13.6503 11.5634 13.4338 11.4241ZM8.75904 6.58532C9.25602 6.39473 9.54362 6.14072 9.76454 5.69727C9.91236 5.40056 9.94386 5.24859 9.94749 4.81459C9.95307 4.1483 9.80918 3.72735 9.45055 3.36082C8.95383 2.85314 8.39071 2.70968 6.89459 2.70968H5.84673V4.74878V6.78788L7.11132 6.76006C8.23049 6.73544 8.41998 6.71535 8.75904 6.58532V6.58532ZM7.59319 6.42144C8.11946 6.11161 8.40139 5.5354 8.40589 4.76049C8.40973 4.09672 8.23988 3.64982 7.84942 3.29635C7.68897 3.1511 7.52254 3.03226 7.47958 3.03226C7.43662 3.03226 7.41831 3.01572 7.4389 2.9955C7.50931 2.92635 7.99396 3.21794 8.2097 3.45925C8.48481 3.76697 8.59802 4.03651 8.64753 4.50174C8.73397 5.31398 8.40228 6.04654 7.79256 6.38998C7.38748 6.61815 7.21204 6.64583 7.59319 6.42143V6.42144ZM7.90508 6.53971C7.86087 6.52197 7.94878 6.39998 8.11276 6.25153C8.56249 5.84441 8.6976 5.50427 8.70129 4.76985C8.70411 4.20751 8.6868 4.11879 8.50663 3.77262C8.38176 3.5327 8.20015 3.31023 8.01393 3.16905C7.85171 3.04607 7.77072 2.96498 7.83395 2.98886C7.89718 3.01273 7.99811 3.05171 8.05823 3.07549C8.12094 3.10028 8.15104 3.09248 8.12883 3.05719C8.06682 2.95864 8.48724 3.00032 8.71106 3.11491C8.96673 3.2458 9.31595 3.63223 9.43816 3.91948C9.5773 4.24652 9.62063 4.9011 9.52819 5.27953C9.41221 5.75433 9.1096 6.16618 8.71227 6.38998C8.38948 6.5718 8.13843 6.65311 8.34308 6.50955C8.42223 6.45402 8.41252 6.44669 8.29371 6.47226C8.19857 6.49275 8.16141 6.47932 8.18953 6.43464C8.21759 6.39005 8.19218 6.38065 8.11855 6.4084C8.05547 6.43217 7.98411 6.45206 7.95997 6.45261C7.93582 6.45312 7.96042 6.48174 8.01461 6.51614C8.11515 6.57995 8.04372 6.59532 7.90508 6.53971ZM8.76745 6.2241C9.15639 5.84213 9.2836 5.52719 9.31402 4.87097C9.34875 4.12177 9.19722 3.68388 8.76912 3.29635C8.60867 3.1511 8.44143 3.03226 8.39747 3.03226C8.35352 3.03226 8.41879 3.10562 8.54253 3.19527C8.81558 3.39312 9.10678 3.80589 9.19611 4.12173C9.29374 4.4669 9.27682 5.09146 9.1593 5.48009C9.08442 5.72772 8.96727 5.90927 8.73542 6.13696C8.5592 6.31002 8.44219 6.45162 8.4754 6.45162C8.50861 6.45162 8.64003 6.34923 8.76745 6.2241V6.2241ZM8.53212 6.16043C8.80554 5.8546 8.90461 5.65074 8.99949 5.1987C9.14425 4.50903 8.96239 3.81035 8.52376 3.37097C8.37321 3.22017 8.22435 3.09678 8.19297 3.09678C8.16159 3.09678 8.22745 3.17242 8.33932 3.26487C8.80851 3.65259 9.06688 4.45431 8.93996 5.12861C8.85654 5.57178 8.72057 5.83813 8.42104 6.14517C8.29123 6.27823 8.21752 6.3871 8.25724 6.3871C8.29697 6.3871 8.42066 6.2851 8.53212 6.16042V6.16043ZM9.03106 6.25281C9.49069 5.83673 9.623 5.50559 9.6236 4.76985C9.62406 4.21018 9.60565 4.11715 9.42633 3.77262C9.30295 3.53556 9.12189 3.31274 8.94495 3.1802C8.62061 2.93725 8.63421 2.91351 8.99436 3.09395C9.7192 3.45711 10.0739 4.49369 9.79581 5.43614C9.69643 5.77294 9.29197 6.27109 8.99575 6.42153C8.70978 6.56675 8.71575 6.53824 9.03106 6.25281ZM20.8248 11.3994C20.8248 10.8578 20.8497 10.6376 20.9213 10.5446C21.0077 10.4324 21.0179 10.5085 21.0198 11.2742C21.0216 11.992 21.0061 12.129 20.9234 12.129C20.8416 12.129 20.8248 12.005 20.8248 11.3994ZM21.4181 11.0161C21.4197 10.1931 21.443 9.87383 21.5075 9.79033C21.5555 9.72823 21.6137 9.67742 21.6368 9.67742C21.6599 9.67742 21.6788 10.229 21.6788 10.9032C21.6788 12.086 21.6742 12.129 21.5474 12.129C21.4211 12.129 21.4161 12.0867 21.4181 11.0161ZM21.7469 10.7581C21.7487 9.69118 21.77 9.35133 21.8431 9.22581C21.9265 9.08253 21.9372 9.2356 21.9393 10.5968C21.9413 11.9168 21.928 12.129 21.8431 12.129C21.7585 12.129 21.7449 11.9347 21.7469 10.7581ZM22.0316 12.0336C22.0111 11.9812 22.0082 11.1901 22.0251 10.2756C22.0488 8.99634 22.0795 8.54596 22.1586 8.32259C22.2559 8.04741 22.2615 8.13914 22.2657 10.0806C22.2695 11.879 22.2578 12.129 22.1695 12.129C22.1141 12.129 22.0521 12.0861 22.0316 12.0336H22.0316ZM22.3358 6.79157V1.4541L22.5244 1.64641C22.6281 1.75218 23.6225 2.82581 24.7341 4.03226C26.7287 6.19703 27.5788 7.09678 27.6296 7.09678C27.677 7.09678 28.5973 6.12101 30.6111 3.93549C31.7065 2.74678 32.6723 1.70228 32.7575 1.61437L32.9124 1.45455V6.79179V12.129H32.2555H31.5985V8.41936C31.5985 6.37904 31.5764 4.71188 31.5493 4.71456C31.5222 4.71725 31.1157 5.14088 30.646 5.65598C30.1763 6.17108 29.3117 7.11969 28.7248 7.764C28.1378 8.40832 27.6408 8.92986 27.6203 8.92298C27.5998 8.9161 27.1488 8.43555 26.6181 7.85509C24.4467 5.47994 23.7602 4.74088 23.7063 4.72044C23.6749 4.70853 23.6496 6.3578 23.6496 8.41398V12.129H22.9927H22.3358V6.79157ZM30.024 9.30646C30.0256 7.06166 30.0439 6.46076 30.1133 6.37097C30.1613 6.30888 30.2195 6.25807 30.2426 6.25807C30.2658 6.25807 30.2847 7.57904 30.2847 9.19355C30.2847 12.086 30.2827 12.129 30.1533 12.129C30.0239 12.129 30.0219 12.0867 30.024 9.30646ZM30.3504 9.10968C30.3504 6.11688 30.3624 5.93549 30.5606 5.93549C30.5895 5.93549 30.6131 7.32904 30.6131 9.03226C30.6131 12.086 30.6113 12.129 30.4818 12.129C30.3522 12.129 30.3504 12.086 30.3504 9.10968ZM30.6788 8.94782C30.6788 6.25057 30.6935 5.74755 30.7753 5.64137C30.8605 5.53072 30.872 5.90121 30.8738 8.82259C30.8757 11.7196 30.8637 12.129 30.7774 12.129C30.6911 12.129 30.6788 11.7326 30.6788 8.94782ZM30.9416 8.8136C30.9416 5.6115 30.946 5.49296 31.0708 5.34586C31.1996 5.19403 31.2 5.20435 31.2022 8.6613C31.2044 12.0867 31.2028 12.129 31.073 12.129C30.9433 12.129 30.9416 12.086 30.9416 8.8136ZM31.2701 8.64093C31.2701 5.25695 31.2889 4.90323 31.4695 4.90323C31.5094 4.90323 31.5328 6.23838 31.5328 8.51613C31.5328 12.086 31.5313 12.129 31.4015 12.129C31.2717 12.129 31.2701 12.086 31.2701 8.64093ZM13.073 11.871C12.9854 11.8154 12.9854 11.8082 13.073 11.8065C13.1606 11.8047 13.1606 11.7975 13.073 11.7419C12.9418 11.6587 12.8577 11.6608 12.9114 11.7461C12.9951 11.8792 12.1558 11.4174 11.7792 11.1232C10.8836 10.4234 10.2272 9.48477 9.93353 8.48388C9.73152 7.7953 9.7031 7.56956 9.81321 7.52806C9.93262 7.48306 9.98541 7.53582 9.98541 7.70018C9.98541 7.95783 10.2021 8.68635 10.4141 9.14145C10.7101 9.77683 11.0326 10.2374 11.5197 10.7205C11.9436 11.1409 12.6513 11.6615 12.7145 11.5994C12.7341 11.5801 12.6528 11.5073 12.5338 11.4375C11.8572 11.0404 11.0954 10.253 10.6749 9.51613C10.4127 9.05678 10.1463 8.3021 10.0637 7.78539C10.012 7.46151 10.0191 7.40619 10.1189 7.35372C10.2197 7.30075 10.2389 7.33786 10.2785 7.6629C10.3502 8.24968 10.7413 9.3152 11.0659 9.80809C11.4604 10.4069 12.141 11.073 12.7694 11.4752C13.054 11.6574 13.2462 11.8069 13.1964 11.8074C13.1248 11.8082 13.1265 11.8215 13.2044 11.871C13.2586 11.9054 13.2734 11.9335 13.2372 11.9335C13.2011 11.9335 13.1272 11.9054 13.073 11.871V11.871ZM35.3226 11.8848C35.3717 11.8541 35.2478 11.7582 34.9887 11.6263C34.1915 11.2203 32.9781 10.0561 32.9781 9.69713C32.9781 9.61532 32.9887 9.54839 33.0016 9.54839C33.0146 9.54839 33.1286 9.70081 33.255 9.8871C33.74 10.6019 34.427 11.2281 35.1992 11.6594C35.4594 11.8047 35.5207 11.8645 35.4402 11.8948C35.2935 11.9501 35.2271 11.9444 35.3226 11.8848ZM13.2286 11.6548C12.6491 11.348 12.2237 11.0259 11.7721 10.5518C11.0396 9.78278 10.7414 9.24416 10.4709 8.20141C10.2911 7.5084 10.2739 7.20966 10.4078 7.10057C10.4863 7.03657 10.5083 7.07485 10.5421 7.33461C10.6292 8.00428 10.8548 8.84163 11.0623 9.26528C11.5362 10.233 12.4241 11.1438 13.4187 11.6823C13.6079 11.7848 13.7332 11.8685 13.6971 11.8683C13.661 11.8681 13.4501 11.7721 13.2286 11.6548ZM34.4562 11.6652C34.2394 11.5554 33.9586 11.3917 33.8321 11.3014C33.4597 11.0354 32.9781 10.5607 32.9781 10.4596C32.9781 10.4081 33.1776 10.5535 33.4215 10.7828C33.8712 11.2055 34.2793 11.5179 34.3242 11.4737C34.3377 11.4604 34.1543 11.3048 33.9165 11.128C33.4147 10.7547 32.9564 10.2491 32.9886 10.1042C33.0034 10.0376 33.1274 10.143 33.3557 10.4162C33.6424 10.7594 34.2582 11.2708 34.8566 11.6626C34.9718 11.738 34.9687 11.7416 34.8175 11.7083L34.6533 11.672L34.8175 11.7692C35.1093 11.9419 34.8621 11.8707 34.4562 11.6652ZM34.5915 11.5786C34.5213 11.5265 34.4326 11.4848 34.3944 11.4859C34.3561 11.4871 34.3822 11.5306 34.4523 11.5827C34.5225 11.6348 34.6112 11.6765 34.6494 11.6754C34.6877 11.6742 34.6616 11.6307 34.5915 11.5786ZM35.3789 11.6666C34.8438 11.3955 34.3996 11.0612 33.9211 10.5693C33.3606 9.99303 32.9776 9.39649 32.9798 9.10291C32.9815 8.87559 32.9865 8.88004 33.2277 9.32632C33.3631 9.57676 33.5812 9.92515 33.7123 10.1005C34.0965 10.6143 35.1577 11.5584 35.2496 11.4681C35.2664 11.4517 35.1583 11.3591 35.0096 11.2625C34.6171 11.0074 33.9619 10.3437 33.6331 9.86813C33.1779 9.20987 32.9813 8.69336 32.9835 8.1613L32.9853 7.70968L33.1069 8.1613C33.5213 9.70103 34.2598 10.6697 35.7763 11.6626C35.8915 11.738 35.8884 11.7416 35.7372 11.7083L35.573 11.672L35.7372 11.7692C36.0282 11.9414 35.7824 11.871 35.3789 11.6666ZM35.5112 11.5786C35.441 11.5265 35.3523 11.4848 35.3141 11.4859C35.2758 11.4871 35.3019 11.5306 35.372 11.5827C35.4422 11.6348 35.5309 11.6765 35.5691 11.6754C35.6074 11.6742 35.5813 11.6307 35.5112 11.5786ZM25.5192 7.67081C23.9605 5.96926 23.7148 5.68589 23.7182 5.59369C23.7215 5.50275 24.1913 5.98597 25.6498 7.58065C26.7943 8.83199 26.832 8.87799 26.752 8.92651C26.7228 8.94422 26.1681 8.37916 25.5192 7.67081ZM25.057 7.82529C24.5178 7.23243 23.9953 6.65983 23.896 6.55285C23.7131 6.35589 23.671 6.25807 23.7693 6.25807C23.8241 6.25807 24.184 6.63766 25.4469 8.02744C26.11 8.75722 26.2175 8.90323 26.0917 8.90323C26.0618 8.90323 25.5962 8.41816 25.057 7.82529ZM25.2144 7.67311C24.5887 6.99654 23.9951 6.33869 23.8955 6.21123C23.5923 5.82331 23.772 5.87832 24.1539 6.29033C25.2693 7.49359 26.4445 8.79316 26.4635 8.84431C26.5449 9.06333 26.2089 8.74828 25.2144 7.67311ZM25.9767 7.82358C25.4375 7.22978 24.8301 6.56929 24.627 6.35584C24.0599 5.76005 23.7153 5.35378 23.7153 5.28103C23.7153 5.16925 23.8059 5.24241 24.2062 5.67742C24.4185 5.90807 24.8345 6.35807 25.1307 6.67742C26.2723 7.90814 27.0657 8.79898 27.0657 8.85002C27.0657 8.9937 26.8818 8.82035 25.9767 7.82358ZM26.1351 7.66445C25.5088 6.98312 24.7081 6.11156 24.3558 5.72765C23.773 5.09247 23.6049 4.85534 23.7793 4.91398C23.8144 4.92581 24.1765 5.30095 24.584 5.74762C24.9914 6.19429 25.783 7.05973 26.3431 7.67081C26.9031 8.28189 27.3712 8.80918 27.3832 8.84255C27.462 9.06092 27.135 8.75228 26.1351 7.66445ZM27.5721 6.98954C27.5499 6.95424 27.6247 6.82602 27.7384 6.70462C27.9117 6.51945 32.4796 1.581 32.5674 1.48388C32.5834 1.46613 32.5863 1.51493 32.5738 1.5923C32.5613 1.66968 31.6017 2.75839 30.4412 4.01166C27.5847 7.09673 27.6179 7.06229 27.5721 6.98954H27.5721ZM27.4051 6.77876C27.4452 6.66905 32.2031 1.54839 32.265 1.54839C32.3948 1.54839 32.1306 1.85156 29.8613 4.30646C27.8091 6.5265 27.316 7.02285 27.4051 6.77876ZM27.2737 6.58532C27.2905 6.53944 30.27 3.29317 31.7774 1.67842C31.9332 1.51156 31.9896 1.4809 31.9909 1.56244C31.9919 1.62339 30.9562 2.79194 29.6894 4.15921C27.6668 6.34229 27.186 6.82517 27.2737 6.58532ZM27.0362 6.39073C26.9239 6.2689 26.983 6.19799 29.1042 3.90685C31.0814 1.77132 31.5317 1.3199 31.344 1.6613C31.3099 1.72339 30.3333 2.7996 29.1738 4.05287C28.0144 5.30614 27.0657 6.34404 27.0657 6.35932C27.0657 6.3746 27.0776 6.3871 27.0922 6.3871C27.1156 6.3871 31.3692 1.80839 31.584 1.55193C31.6575 1.46421 31.6658 1.46898 31.6497 1.5899C31.6338 1.7102 27.2942 6.50034 27.1908 6.5118C27.1693 6.51418 27.0997 6.4597 27.0362 6.39073ZM32.9845 5.48388C32.9755 4.32204 34.2372 2.70611 35.7273 1.97112C35.9206 1.87578 36.0888 1.80769 36.1012 1.8198C36.1135 1.83191 35.9665 1.9226 35.7744 2.02134C34.5841 2.63338 33.53 3.96184 33.1472 5.33235L32.9877 5.90323L32.9845 5.48388ZM22.143 5.29033C22.041 4.90642 21.9608 2.16711 22.0394 1.75548C22.0769 1.55904 22.0947 1.54201 22.1772 1.62313C22.2565 1.70094 22.2692 2.03863 22.2546 3.68069C22.2383 5.52671 22.2315 5.62377 22.143 5.29033ZM11.365 4.79456C11.365 4.02736 12.6583 2.59476 13.909 1.97655C14.5011 1.68384 14.6257 1.67062 14.0826 1.95812C12.9703 2.54696 11.9942 3.57936 11.573 4.61237C11.3737 5.10125 11.365 5.10887 11.365 4.79456ZM32.9811 4.55707C32.9751 4.05809 33.9805 2.85036 34.8827 2.27296C35.1172 2.12283 35.2782 2.00001 35.2404 2.00001C34.9463 2.00001 33.8005 3.00524 33.2984 3.70367C33.0286 4.07908 32.9781 4.12319 32.9781 3.98366C32.9781 3.6773 34.0104 2.59241 34.6548 2.22155C34.8198 2.12656 34.9392 2.03345 34.92 2.01464C34.8421 1.93808 34.0921 2.50399 33.5529 3.04626C33.2091 3.39201 32.9781 3.58124 32.9781 3.51707C32.9781 3.37085 33.6348 2.70544 34.069 2.41181C34.2639 2.27996 34.4107 2.1596 34.3951 2.14434C34.3461 2.09621 33.7488 2.53026 33.3759 2.88493C33.1788 3.07241 33.0087 3.22581 32.9978 3.22581C32.987 3.22581 32.9781 3.1829 32.9781 3.13046C32.9781 2.93427 34.3078 1.98353 34.7847 1.83876C34.8569 1.81683 34.8024 1.86075 34.6635 1.93636C34.2952 2.13687 34.4173 2.1669 34.8088 1.97208C35.1605 1.79706 35.3591 1.74668 35.0803 1.90323C34.8876 2.01143 34.9341 2.02685 35.1783 1.93568C35.2928 1.89293 35.337 1.89293 35.3101 1.93568C35.2588 2.01717 35.3459 2.01706 35.4745 1.93549C35.562 1.8799 35.562 1.87262 35.4745 1.87C35.3937 1.86758 35.3956 1.85575 35.4852 1.80439C35.5454 1.76993 35.6423 1.75972 35.7006 1.7817C35.7778 1.81079 35.6971 1.88526 35.404 2.05555C34.4814 2.59155 33.5849 3.53916 33.1676 4.41936L32.9841 4.80646L32.9811 4.55707H32.9811ZM21.8266 4.4292C21.769 4.30487 21.7445 3.8349 21.7445 2.85411C21.7445 1.60367 21.7551 1.46656 21.8443 1.55424C21.9289 1.63728 21.9414 1.878 21.9265 3.12933C21.9116 4.372 21.8957 4.57828 21.8266 4.4292ZM11.3688 4.11713C11.3636 3.88461 12.0177 3.08039 12.5873 2.61901C12.8271 2.42472 13.2236 2.16241 13.4684 2.03611C13.9947 1.7645 14.1757 1.72749 13.6892 1.99095C13.2852 2.20974 12.6582 2.67988 12.3736 2.97744C12.1774 3.18251 11.6193 3.90223 11.451 4.16715C11.3785 4.28114 11.3724 4.27741 11.3688 4.11713ZM21.5294 3.86378C21.427 3.71565 21.4151 3.55987 21.4309 2.57346C21.4485 1.47631 21.4515 1.45533 21.5655 1.6201C21.6679 1.76824 21.6798 1.92401 21.664 2.91042C21.6464 4.00757 21.6434 4.02856 21.5294 3.86378ZM11.2708 3.81344C11.1802 3.66945 12.0089 2.76172 12.5549 2.40683C12.6968 2.31463 12.7989 2.22545 12.7818 2.20865C12.7188 2.14673 12.0761 2.66906 11.6288 3.14589C11.2966 3.49986 11.1679 3.60169 11.1679 3.51037C11.1679 3.38151 11.8586 2.67974 12.285 2.37543C12.524 2.20487 13.4255 1.7412 13.5148 1.74293C13.5428 1.74344 13.5214 1.77206 13.4672 1.80646C13.3796 1.86205 13.3796 1.86924 13.4672 1.87121C13.5214 1.87243 13.4179 1.96417 13.2372 2.07509C12.5104 2.52131 11.9401 3.04962 11.4099 3.76784C11.345 3.85572 11.3056 3.86865 11.2708 3.81344ZM13.1484 2.03304C13.3057 1.94476 13.411 1.87218 13.3824 1.87175C13.3101 1.87067 12.8102 2.12475 12.8102 2.16261C12.8102 2.21525 12.8531 2.19881 13.1484 2.03304ZM21.219 3.45202C21.1125 3.326 21.0373 2.01197 21.1185 1.69438C21.1558 1.5482 21.1725 1.53965 21.2575 1.62312C21.3354 1.69958 21.3506 1.89747 21.3358 2.64329C21.3194 3.47597 21.3077 3.55692 21.219 3.45202ZM11.0365 3.23924C11.0365 3.07523 12.054 2.27718 12.6225 1.99538C13.1085 1.75443 13.212 1.75131 12.7695 1.99096C12.3245 2.23193 11.7136 2.69751 11.4117 3.02569C11.1837 3.27346 11.0365 3.35728 11.0365 3.23924ZM20.9048 3.08168C20.8442 3.00975 20.8257 2.76712 20.8391 2.21666C20.8551 1.55638 20.8692 1.47146 20.9419 1.59649C21.0629 1.80442 21.0273 3.22704 20.9048 3.08168Z" fill="#503E9D"/>
</svg>
